# xmcd CD database file
#
# Track frame offsets:
#	150
#	12442
#	23744
#	41218
#	56381
#	69459
#	85515
#	104590
#	120196
#	135963
#	156741
#	171534
#	191083
#	205441
#	221814
#	239016
#	253622
#	271455
#	285200
#	300475
#	314568
#	329915
#
# Disc length: 4585 seconds
#
# Revision: 2
# Processed by: cddbd v1.5.2PL0 Copyright (c) Steve Scherf et al.
# Submitted via: CDex 1.70beta2
#
DISCID=4e11e716
DTITLE=Reba McEntire - At Her Very Best
DYEAR=2006
DGENRE=Country
TTITLE0=How Blue
TTITLE1=Can't Even Get The Blues
TTITLE2=The Heart Is A Lonely Hunter
TTITLE3=The Heart Won't Lie (feat. Vince Gill)
TTITLE4=You're The First Time I've Thought About Leaving
TTITLE5=Somebody Should Leave
TTITLE6=Ring On Her Finger Time On Her Hands
TTITLE7=One Promise Too Late
TTITLE8=What Am I Gonna Do About You
TTITLE9=Fallin' Out Of Love
TTITLE10=The Last One To Know
TTITLE11=Does He Love You  (feat. Linda Davis)
TTITLE12=Is There Life Out There
TTITLE13=Love Will Find Its Way To You
TTITLE14=New Fool At An Old Game
TTITLE15=Love Needs A Holiday
TTITLE16=If You See Him - If You See Her (feat. Brooks and Dunn)
TTITLE17=Cathy's Clown
TTITLE18=Whoever's In New England
TTITLE19=Little Rock
TTITLE20=I'm Gonna Take That Mountain
TTITLE21=I'm A Survivor
EXTD=YEAR: 2006
EXTT0=
EXTT1=
EXTT2=
EXTT3=
EXTT4=
EXTT5=
EXTT6=
EXTT7=
EXTT8=
EXTT9=
EXTT10=
EXTT11=
EXTT12=
EXTT13=
EXTT14=
EXTT15=
EXTT16=
EXTT17=
EXTT18=
EXTT19=
EXTT20=
EXTT21=
PLAYORDER=
